<?xml version="1.0" encoding="utf-8"?>
<!-- Generator: Adobe Illustrator 21.0.2, SVG Export Plug-In . SVG Version: 6.00 Build 0)  -->
<svg version="1.1" id="Layer_1" xmlns="http://www.w3.org/2000/svg" xmlns:xlink="http://www.w3.org/1999/xlink" x="0px" y="0px"
	 viewBox="0 0 579.7 270.2" style="enable-background:new 0 0 579.7 270.2;" xml:space="preserve">
<style type="text/css">
	.st0{fill:#848484;}
	.st1{fill:#B2B2B2;}
</style>
<polygon class="st0" points="82.8,208 82.8,166.6 72.5,166.6 62.1,166.6 52.1,166.6 42.1,166.6 42.1,187.2 52.1,187.2 62.1,187.2 
	62.1,208 42.1,208 42.1,218.4 42.1,228.7 82.8,228.7 82.8,218.4 82.8,208 "/>
<polygon class="st0" points="30.5,166.6 30.5,166.6 20.1,166.6 20.1,270.2 30.5,270.2 30.5,270.2 40.8,270.2 40.8,166.6 "/>
<g>
	<polygon class="st1" points="62.8,13.8 62.8,0 42.1,0 42.1,20.7 42.1,125.1 42.1,145.8 62.8,145.8 62.8,125.1 62.8,34.5 62.8,34.5 
		62.8,20.7 62.8,20.7 62.8,13.8 	"/>
	<polygon class="st1" points="20.1,42.4 20.1,125.1 20.1,145.8 40.8,145.8 40.8,125.1 40.8,42.4 40.8,21.7 20.1,21.7 	"/>
</g>
<g>
	<rect x="165.7" y="42.1" class="st1" width="20.7" height="103.7"/>
	<rect x="82.8" y="62.8" class="st1" width="20.7" height="83"/>
	<rect x="207.1" y="42.1" class="st1" width="20.7" height="83"/>
	<rect x="186.4" y="125.1" class="st1" width="20.7" height="20.7"/>
	<polygon class="st1" points="145,42.1 103.5,42.1 103.5,62.8 124.2,62.8 124.2,145.8 145,145.8 145,62.8 145,62.8 	"/>
</g>
<g>
	<polygon class="st1" points="289.9,42.1 289.9,42.1 269.2,42.1 269.2,62.8 289.9,62.8 289.9,62.8 310.6,62.8 310.6,42.1 	"/>
	<polygon class="st1" points="289.9,83.6 269.2,83.6 269.2,62.8 248.5,62.8 248.5,125.1 269.2,125.1 269.2,145.8 289.9,145.8 
		289.9,145.8 310.6,145.8 310.6,125.1 289.9,125.1 289.9,125.1 269.2,125.1 269.2,104.3 289.9,104.3 289.9,104.3 310.6,104.3 
		310.6,83.6 289.9,83.6 	"/>
</g>
<g>
	<rect x="103.6" y="166.5" class="st0" width="20.7" height="83"/>
	<rect x="124.3" y="249.5" class="st0" width="42" height="20.7"/>
	<rect x="269.2" y="187.2" class="st0" width="20.7" height="83"/>
	<polygon class="st0" points="331.3,166.5 289.9,166.5 289.9,187.2 310.6,187.2 310.6,270.2 331.3,270.2 331.3,187.2 331.3,187.2 	
		"/>
	<rect x="352" y="187.2" class="st0" width="20.7" height="83"/>
	<polygon class="st0" points="414.1,166.5 372.7,166.5 372.7,187.2 393.4,187.2 393.4,270.2 414.1,270.2 414.1,187.2 414.1,187.2 	
		"/>
	<rect x="517.6" y="187.2" class="st0" width="20.7" height="83"/>
	<rect x="538.3" y="166.5" class="st0" width="41.4" height="20.7"/>
	<polygon class="st0" points="244.5,166.5 203.1,166.5 203.1,187.2 223.8,187.2 223.8,228.7 203.1,228.7 203.1,187.2 182.4,187.2 
		182.4,270.2 203.1,270.2 203.1,249.4 223.8,249.4 223.8,270.2 244.5,270.2 244.5,187.2 244.5,187.2 	"/>
	<polygon class="st0" points="476.2,166.5 455.5,166.5 455.5,187.2 476.2,187.2 476.2,187.2 496.9,187.2 496.9,166.5 476.2,166.5 	
		"/>
	<polygon class="st0" points="476.2,208 455.5,208 455.5,187.2 434.8,187.2 434.8,249.5 455.5,249.5 455.5,270.2 476.2,270.2 
		476.2,270.2 496.9,270.2 496.9,249.5 476.2,249.5 476.2,249.5 455.5,249.5 455.5,228.7 476.2,228.7 476.2,228.7 496.9,228.7 
		496.9,208 476.2,208 	"/>
</g>
<g>
	<polygon class="st1" points="372.7,42.1 372.7,42.1 352,42.1 352,62.8 372.7,62.8 372.7,62.8 393.4,62.8 393.4,42.1 	"/>
	<polygon class="st1" points="352,125.1 331.3,125.1 331.3,145.8 352,145.8 352,145.8 372.7,145.8 372.7,125.1 352,125.1 	"/>
	<rect x="331.3" y="62.8" class="st1" width="20.7" height="41.5"/>
	<polygon class="st1" points="372.7,83.6 352,83.6 352,104.3 372.7,104.3 372.7,125.1 393.4,125.1 393.4,83.6 372.7,83.6 	"/>
</g>
<rect x="434.8" y="125.1" class="st1" width="20.7" height="20.7"/>
<g>
	<polygon class="st1" points="476.2,42.1 455.5,42.1 455.5,42.1 434.8,42.1 434.8,83.6 434.8,83.6 434.8,104.3 434.8,104.3 
		434.8,145.8 455.5,145.8 455.5,104.3 455.5,83.6 455.5,62.8 476.2,62.8 	"/>
	<rect x="414.1" y="42.1" class="st1" width="20.7" height="20.7"/>
</g>
</svg>
