<?xml version="1.0" encoding="utf-8"?>
<!-- Generator: Adobe Illustrator 21.0.2, SVG Export Plug-In . SVG Version: 6.00 Build 0)  -->
<svg version="1.1" id="Layer_1" xmlns="http://www.w3.org/2000/svg" xmlns:xlink="http://www.w3.org/1999/xlink" x="0px" y="0px"
	 viewBox="0 0 579.7 311.7" style="enable-background:new 0 0 579.7 311.7;" xml:space="preserve">
<style type="text/css">
	.st0{fill:#848484;}
	.st1{fill:#B2B2B2;}
</style>
<polygon class="st0" points="82.8,249.5 82.8,208.1 72.5,208.1 62.1,208.1 52.1,208.1 42.1,208.1 42.1,228.7 52.1,228.7 62.1,228.7 
	62.1,249.5 42.1,249.5 42.1,259.9 42.1,270.2 82.8,270.2 82.8,259.9 82.8,249.5 "/>
<polygon class="st0" points="30.5,208.1 30.5,208.1 20.1,208.1 20.1,311.7 30.5,311.7 30.5,311.7 40.8,311.7 40.8,208.1 "/>
<g>
	<polygon class="st1" points="62.8,0 0,0 0,20.7 42.1,20.7 42.1,187.3 52.5,187.3 62.8,187.3 62.8,20.7 62.8,20.7 	"/>
	<polygon class="st1" points="0,42.4 20.1,42.4 20.1,187.3 30.5,187.3 40.8,187.3 40.8,42.4 40.8,42.4 40.8,21.7 0,21.7 	"/>
</g>
<g>
	<rect x="165.7" y="83.6" class="st1" width="20.7" height="103.7"/>
	<rect x="82.8" y="104.3" class="st1" width="20.7" height="83"/>
	<rect x="207.1" y="83.6" class="st1" width="20.7" height="83"/>
	<rect x="186.4" y="166.6" class="st1" width="20.7" height="20.7"/>
	<polygon class="st1" points="145,83.6 103.5,83.6 103.5,104.3 124.2,104.3 124.2,187.3 145,187.3 145,104.3 145,104.3 	"/>
</g>
<g>
	<polygon class="st1" points="289.9,83.6 289.9,83.6 269.2,83.6 269.2,104.3 289.9,104.3 289.9,104.3 310.6,104.3 310.6,83.6 	"/>
	<polygon class="st1" points="289.9,125.1 269.2,125.1 269.2,104.3 248.5,104.3 248.5,166.6 269.2,166.6 269.2,187.3 289.9,187.3 
		289.9,187.3 310.6,187.3 310.6,166.6 289.9,166.6 289.9,166.6 269.2,166.6 269.2,145.8 289.9,145.8 289.9,145.8 310.6,145.8 
		310.6,125.1 289.9,125.1 	"/>
</g>
<g>
	<rect x="103.6" y="208" class="st0" width="20.7" height="83"/>
	<rect x="124.3" y="291" class="st0" width="42" height="20.7"/>
	<rect x="269.2" y="228.7" class="st0" width="20.7" height="83"/>
	<polygon class="st0" points="331.3,208 289.9,208 289.9,228.7 310.6,228.7 310.6,311.7 331.3,311.7 331.3,228.7 331.3,228.7 	"/>
	<rect x="352" y="228.7" class="st0" width="20.7" height="83"/>
	<polygon class="st0" points="414.1,208 372.7,208 372.7,228.7 393.4,228.7 393.4,311.7 414.1,311.7 414.1,228.7 414.1,228.7 	"/>
	<rect x="517.6" y="228.7" class="st0" width="20.7" height="83"/>
	<rect x="538.3" y="208" class="st0" width="41.4" height="20.7"/>
	<polygon class="st0" points="244.5,208 203.1,208 203.1,228.7 223.8,228.7 223.8,270.2 203.1,270.2 203.1,228.7 182.4,228.7 
		182.4,311.7 203.1,311.7 203.1,290.9 223.8,290.9 223.8,311.7 244.5,311.7 244.5,228.7 244.5,228.7 	"/>
	<polygon class="st0" points="476.2,208 455.5,208 455.5,228.7 476.2,228.7 476.2,228.7 496.9,228.7 496.9,208 476.2,208 	"/>
	<polygon class="st0" points="476.2,249.5 455.5,249.5 455.5,228.7 434.8,228.7 434.8,291 455.5,291 455.5,311.7 476.2,311.7 
		476.2,311.7 496.9,311.7 496.9,291 476.2,291 476.2,291 455.5,291 455.5,270.2 476.2,270.2 476.2,270.2 496.9,270.2 496.9,249.5 
		476.2,249.5 	"/>
</g>
<g>
	<polygon class="st1" points="372.7,83.6 372.7,83.6 352,83.6 352,104.3 372.7,104.3 372.7,104.3 393.4,104.3 393.4,83.6 	"/>
	<polygon class="st1" points="352,166.6 331.3,166.6 331.3,187.3 352,187.3 352,187.3 372.7,187.3 372.7,166.6 352,166.6 	"/>
	<rect x="331.3" y="104.3" class="st1" width="20.7" height="41.5"/>
	<polygon class="st1" points="372.7,125.1 352,125.1 352,145.8 372.7,145.8 372.7,166.6 393.4,166.6 393.4,125.1 372.7,125.1 	"/>
</g>
<rect x="434.8" y="166.6" class="st1" width="20.7" height="20.7"/>
<g>
	<polygon class="st1" points="476.2,83.6 455.5,83.6 455.5,83.6 434.8,83.6 434.8,125.1 434.8,125.1 434.8,145.8 434.8,145.8 
		434.8,187.3 455.5,187.3 455.5,145.8 455.5,125.1 455.5,104.3 476.2,104.3 	"/>
	<rect x="414.1" y="83.6" class="st1" width="20.7" height="20.7"/>
</g>
</svg>
