<?xml version="1.0" encoding="utf-8"?>
<!-- Generator: Adobe Illustrator 21.0.2, SVG Export Plug-In . SVG Version: 6.00 Build 0)  -->
<svg version="1.1" id="Layer_1" xmlns="http://www.w3.org/2000/svg" xmlns:xlink="http://www.w3.org/1999/xlink" x="0px" y="0px"
	 viewBox="0 0 125.9 125.9" style="enable-background:new 0 0 125.9 125.9;" xml:space="preserve">
<style type="text/css">
	.st0{fill:#848484;}
	.st1{fill:#B2B2B2;}
</style>
<polygon class="st0" points="115.7,41.4 115.7,0 105.3,0 95,0 85,0 75,0 75,20.6 85,20.6 95,20.6 95,41.4 75,41.4 75,51.8 75,62.1 
	115.7,62.1 115.7,51.8 115.7,41.4 "/>
<rect x="73" y="0" class="st0" width="0" height="20.7"/>
<rect x="52.3" y="0" class="st0" width="20.7" height="125.9"/>
<rect x="30.6" y="0" class="st1" width="20.4" height="20.7"/>
<polygon class="st1" points="10.2,42.6 30.3,42.6 30.3,125.9 40.7,125.9 51,125.9 51,42.6 51,42.6 51,21.9 10.2,21.9 "/>
</svg>
