<?xml version="1.0" encoding="utf-8"?>
<!-- Generator: Adobe Illustrator 21.0.2, SVG Export Plug-In . SVG Version: 6.00 Build 0)  -->
<svg version="1.1" id="Layer_1" xmlns="http://www.w3.org/2000/svg" xmlns:xlink="http://www.w3.org/1999/xlink" x="0px" y="0px"
	 viewBox="0 0 125.9 125.9" style="enable-background:new 0 0 125.9 125.9;" xml:space="preserve">
<style type="text/css">
	.st0{fill:#848484;}
	.st1{fill:#B2B2B2;}
</style>
<g>
	<polygon class="st1" points="62.8,0 8.1,0 8.1,26.5 36.3,26.5 36.3,52.2 49.5,52.2 62.8,52.2 62.8,26.5 62.8,26.5 	"/>
	<rect x="8.1" y="28" class="st1" width="26.5" height="97.8"/>
</g>
<polygon class="st0" points="117.4,53.7 117.4,0 103.9,0 90.5,0 77.6,0 64.6,0 64.6,26.7 77.6,26.7 90.5,26.7 90.5,53.7 64.6,53.7 
	64.6,67.1 64.6,80.5 117.4,80.5 117.4,67.1 117.4,53.7 "/>
<polygon class="st0" points="49.5,54 49.5,54 36.1,54 36.1,125.9 49.5,125.9 49.5,125.9 62.9,125.9 62.9,54 "/>
</svg>
